<svg xmlns="http://www.w3.org/2000/svg" xmlns:xlink="http://www.w3.org/1999/xlink" width="100" height="100" viewBox="0 0 100 100"><g><g transform="translate(50 50) scale(0.69 0.69) rotate(0) translate(-50 -50)" style="fill:#2196f3"><svg fill="#2196f3" xmlns="http://www.w3.org/2000/svg" xmlns:xlink="http://www.w3.org/1999/xlink" version="1.1" x="0px" y="0px" viewBox="0 0 100 100" enable-background="new 0 0 100 100" xml:space="preserve"><g><path d="M67.743,30.148c1.304,2.412,3.766,4.114,6.699,4.114c4.262,0,7.709-3.453,7.709-7.708c0-2.382-1.145-4.434-2.841-5.848   c0.047-0.423,0.127-0.839,0.127-1.274c0-5.97-4.842-10.801-10.813-10.801c-5.964,0-10.808,4.832-10.808,10.801   C57.816,25.102,62.193,29.694,67.743,30.148z"></path><path d="M48.999,84.738c0,0-15.242-17.422-16.632-19.216c-1.396-1.793-4.188-7.177-4.39-11.163   c-0.203-3.986,0.998-6.975,1.794-9.173c0.802-2.191,1.396-1.788,3.19-0.796c1.794,0.999,4.384,3.792,1.996,6.179   c-1.463,1.463-1.451,1.567-2.155,2.315c-0.146,0.159-2.499,1.524-2.499,1.524s0.625,0.336,0.466,0.55   c-0.601,0.796-1.195,2.39-0.196,3.785c0.998,1.396,2.792,0.6,4.782-0.992c0.245-0.196,1.035,0.459,1.035,0.459   s3.686-5.64,4.568-7.391c0.992-1.99,0.63-5.707-1.959-8.696c-2.596-2.994-5.634-3.912-9.823-5.106   c-0.783-0.228-1.5-0.398-2.21-0.569c-1.243,3.153-3.037,5.75-4.262,6.918c0.509,0.619,0.851,1.373,0.851,2.235   c0,1.978-1.604,3.576-3.583,3.576c-1.977,0-3.576-1.599-3.576-3.576c0-1.659,1.151-2.994,2.682-3.404   c-0.055-0.154-0.141-0.208-0.177-0.423c-0.318-1.738,0.239-5.04,1.298-6.515c-0.122-0.012-0.281-0.03-0.398-0.042   c-1.99-0.196-4.188-1.593-5.376-5.579c-1.2-3.992-0.802-9.173,1.788-13.16c1.452-2.234,4.415-5.553,4.415-5.553   s-0.532-0.251-0.429-0.398c0.57-0.809,0.98-1.373,1.201-1.624c1.194-1.396-0.6-2.994-0.6-2.994   c-1.543-1.543-3.742,0.166-5.505,2.296c-0.11,0.134-0.649-0.325-0.649-0.325s-1.029,2.125-1.415,2.719   c-1.794,2.792-4.788,9.265-4.788,15.045c0,5.787,1.592,8.775,3.19,10.569c1.592,1.793-0.325,4.329-0.625,7.103   c-0.392,3.534,0.423,10.441,1.819,14.63c1.396,4.188,1.396,4.391-0.196,5.187c-1.599,0.796-5.983,7.372-5.983,14.752   c0,3.631,1.922,12.644,1.922,12.644s1.06-0.734,1.127-0.575c0.986,2.315,1.059,1.714,1.531,2.283   c0.998,1.195,3.196,3.19,6.38,0.798c2.162-1.618,1.304-3.877,0.159-5.971c-0.123-0.227,1.065-1.023,1.065-1.023   s-2.474-3.104-2.774-3.754c-1.194-2.59-2.235-5.4,0.355-9.583c2.59-4.193,5.78-7.183,6.583-5.981   c0.202,0.306,1.451,2.069,3.233,4.556c3.938,5.517,9.021,16.006,12.498,20.629c0,0,1.991-0.71,2.218-0.41   c0.654,0.852,1.132,1.464,1.383,1.739c1.997,2.191,5.383,1.592,6.583,0.196c1.096-1.28,1.586-3.632-0.894-7.066   C47.805,86.061,48.999,84.738,48.999,84.738z"></path><path d="M19.545,41.654c0.03,0.177,0.085,0.299,0.134,0.428c0.092,0.239,0.196,0.41,0.325,0.423   c1.359,0.134,1.788,0.184,1.892,0.734c0.086-0.067,0.232-0.239,0.342-0.349c0.956-0.913,2.731-3.196,4.084-6.607   c-2.192-0.502-3.974-0.766-5.388-0.938C20.01,36.173,19.19,39.707,19.545,41.654z"></path><path d="M20.592,15.959c-1.482,0.264-2.462,1.665-2.205,3.141c0.122,0.686,0.49,1.262,0.992,1.66   c-0.864,0.582-1.354,1.629-1.164,2.725c0.146,0.864,0.691,1.549,1.409,1.929c-0.564,3.264,1.206,6.589,4.408,7.862   c3.674,1.464,7.832-0.331,9.289-4.005c0.056-0.122,0.092-0.245,0.135-0.373c0.275,0.042,0.569,0.036,0.863-0.013   c1.372-0.239,2.327-1.476,2.242-2.841c0.005,0,0.011,0.006,0.024,0c1.476-0.257,2.461-1.666,2.199-3.147   c-0.08-0.429-0.251-0.82-0.502-1.151c0.293-0.521,0.41-1.151,0.299-1.788c-0.207-1.145-1.089-1.99-2.167-2.192   c0.337-0.552,0.484-1.212,0.368-1.898c-0.257-1.445-1.623-2.418-3.068-2.211c0-0.128-0.012-0.27-0.037-0.398   c-0.263-1.482-1.671-2.468-3.147-2.205c-0.57,0.098-1.066,0.374-1.446,0.76c-0.606-0.76-1.585-1.17-2.608-0.992   c-1.133,0.202-1.978,1.084-2.186,2.155c-0.459-0.189-0.968-0.257-1.494-0.166C21.321,13.069,20.335,14.484,20.592,15.959z"></path><path d="M64.608,33.368c0,1.022,0.818,1.843,1.831,1.843c1.021,0,1.847-0.821,1.847-1.843c0-1.01-0.826-1.831-1.847-1.831   C65.427,31.537,64.608,32.358,64.608,33.368z"></path><path d="M93.352,71.909c-0.461-2.522-2.039-4.39-3.625-6.007c-0.931-1.477-1.831-2.493-2.388-2.768   c-0.318-0.159-0.547-0.386-0.755-0.624c-0.209-0.301-0.324-0.606-0.447-0.913c-0.305-1.059-0.146-2.603,0.694-5.125   c0.96-2.879,1.064-5.487,1.468-9.295c0.179-1.728,1.384-2.242,1.298-3.859c-0.147-2.791-2.859-5.309-1.262-7.103   c1.592-1.793,3.187-4.782,3.187-10.569c0-5.781-3.387-12.357-5.188-15.15c-1.789-2.792-5.083-6.681-7.171-4.586   c0,0-1.795,1.599-0.602,2.994c0.294,0.343,0.955,1.256,1.869,2.591c0.184,0.263-0.656,1.359-0.453,1.659   c0.791,1.164,2.407,2.186,3.428,3.748c2.591,3.992,3.332,8.745,2.133,12.737c-1.188,3.986-3.387,5.383-5.376,5.579   c-1.998,0.202-5.188,0.6-9.376,1.8c-4.188,1.194-7.574,2.791-10.171,5.774c-2.585,2.994-2.506,7.121-1.507,9.111   c0.999,1.995,2.139,5.364,4.128,6.962c0.165,0.136,1.702-0.856,1.866-0.734c1.795,1.328,3.376,1.893,4.287,0.612   c0.999-1.396,0.403-2.989-0.195-3.785c-0.228-0.294,0.549-0.538,0.135-0.985c-0.711-0.759-2.824-1.897-4.322-3.404   c-2.396-2.388,0.2-5.18,1.995-6.179c1.795-0.992,2.388-1.396,3.184,0.796c0.796,2.198,1.995,5.187,1.795,9.173   c-0.074,1.507-0.571,3.185-1.169,4.819c-0.596,0.931-1.343,1.39-2.904,2.945c-2.357,2.364-2.239,3.827-3.875,5.83   c-1.108,1.347-1.034,1.788,0.074,2.266c-3.584,4.837-8.793,11.867-10.961,14.444c-3.191,3.784-3.289,7.373-2.095,8.77   c1.194,1.396,4.586,1.995,6.581-0.196c1.422-1.568,10.216-13.741,15.449-21.053c3.271,0.361,7.092,0.625,10.547,0.724   c2.438,4.133,1.298,8.806,0.115,11.353c-1.193,2.596-4.58,6.386-1.396,8.775c3.191,2.393,5.39,0.397,6.386-0.798   c0.994-1.199,4.581-6.98,4.581-14.352c0-1.905-0.3-3.755-0.758-5.469C93.003,72.282,93.313,72.117,93.352,71.909z"></path></g></svg></g></g></svg>